<svg xmlns="http://www.w3.org/2000/svg" width="54.73" height="29.32" viewBox="0 0 54.73 29.32"><defs><style>.a{fill:#fff;}.b{fill:#f7981d;}.c{fill:#cb2026;}</style></defs><g transform="translate(0)"><rect class="a" width="54.731" height="29.32" rx="3" transform="translate(0)"/><g transform="translate(12.691 6.044)"><path class="b" d="M214.351,131.674a8.486,8.486,0,1,1-16.973,0v0a8.487,8.487,0,1,1,16.973,0S214.351,131.672,214.351,131.674Z" transform="translate(-185.994 -123.167)"/><path class="c" d="M59.72,123.193a8.505,8.505,0,1,0,5.764,14.794h0a8.408,8.408,0,0,0,.862-.911H64.609a8.164,8.164,0,0,1-.633-.875h3a8.576,8.576,0,0,0,.495-.911H63.482a8.347,8.347,0,0,1-.355-.893h4.7a8.565,8.565,0,0,0,.241-4.519H62.878a8.66,8.66,0,0,1,.242-.893h4.7a8.535,8.535,0,0,0-.366-.911H63.481a8.28,8.28,0,0,1,.487-.893h3a8.607,8.607,0,0,0-.658-.911H64.635a7.878,7.878,0,0,1,.851-.859,8.441,8.441,0,0,0-5.711-2.217Z" transform="translate(-51.288 -123.191)"/><g transform="translate(0.805 6.311)"><path class="a" d="M182.825,212.958l.113-.77c-.062,0-.153.026-.233.026-.314,0-.349-.167-.329-.291l.254-1.571h.478l.115-.852h-.451l.092-.529h-.9c-.02.02-.534,2.978-.534,3.337a.672.672,0,0,0,.72.767A2.374,2.374,0,0,0,182.825,212.958Z" transform="translate(-172.092 -208.596)"/><path class="a" d="M203.035,216.565a1.42,1.42,0,0,0,1.561,1.584,2.286,2.286,0,0,0,.954-.149l.16-.874a2.794,2.794,0,0,1-.96.224c-.97,0-.8-.725-.8-.725h1.837a6.566,6.566,0,0,0,.118-.826,1.213,1.213,0,0,0-1.288-1.323C203.707,214.475,203.035,215.456,203.035,216.565Zm1.585-1.279c.51,0,.415.574.415.621h-1C204.032,215.847,204.127,215.285,204.62,215.285Z" transform="translate(-192.015 -213.67)"/><path class="a" d="M268.2,208.511l.162-.988a2.163,2.163,0,0,1-.748.224.9.9,0,0,1-.9-1.018c0-1.069.551-1.658,1.166-1.658a1.606,1.606,0,0,1,.83.259l.147-.959a3.231,3.231,0,0,0-1.017-.223c-1.043,0-2.059.906-2.059,2.61,0,1.128.548,1.875,1.627,1.875A4.153,4.153,0,0,0,268.2,208.511Z" transform="translate(-249.873 -204.149)"/><path class="a" d="M115.717,214.654a3.121,3.121,0,0,0-1.095.2l-.131.78a2.857,2.857,0,0,1,.985-.159c.336,0,.582.038.582.312a.583.583,0,0,1-.03.228s-.265-.022-.388-.022c-.781,0-1.6.334-1.6,1.342a.859.859,0,0,0,.872.976,1.174,1.174,0,0,0,.927-.416l-.03.346h.8l.355-2.494A1.069,1.069,0,0,0,115.717,214.654Zm.194,2.03c.017.153-.1.867-.64.867a.33.33,0,0,1-.354-.342c0-.248.134-.545.8-.545A.59.59,0,0,1,115.911,216.684Z" transform="translate(-109.953 -213.835)"/><path class="a" d="M150.366,218.359c.2,0,1.367.052,1.367-1.151,0-1.125-1.077-.9-1.077-1.355,0-.224.176-.3.5-.3.127,0,.618.041.618.041l.114-.8a4.225,4.225,0,0,0-.833-.071c-.669,0-1.347.267-1.347,1.182,0,1.038,1.131.933,1.131,1.37,0,.292-.316.315-.56.315a2.938,2.938,0,0,1-.8-.138l-.12.791A2.825,2.825,0,0,0,150.366,218.359Z" transform="translate(-142.515 -213.904)"/><path class="a" d="M362.251,205.422l-.195,1.212a1.194,1.194,0,0,0-.872-.47c-.828,0-1.518,1-1.518,2.15,0,.742.368,1.468,1.121,1.468a1.127,1.127,0,0,0,.841-.378l-.039.323h.879l.691-4.306Zm-.419,2.364c0,.478-.237,1.116-.726,1.116-.325,0-.477-.274-.477-.7,0-.7.314-1.166.711-1.166C361.665,207.034,361.832,207.258,361.832,207.786Z" transform="translate(-336.441 -205.321)"/><path class="a" d="M62.49,209.719l.551-3.251.08,3.251h.623l1.161-3.251-.515,3.251h.925l.713-4.311H64.6l-.891,2.645-.046-2.645H62.342l-.723,4.311Z" transform="translate(-61.619 -205.31)"/><path class="a" d="M240.475,218.737c.263-1.5.312-2.716.94-2.494a3.511,3.511,0,0,1,.335-1.05.938.938,0,0,0-.174-.012c-.4,0-.7.554-.7.554l.08-.509h-.842l-.563,3.51Z" transform="translate(-225.682 -214.322)"/><path class="a" d="M303.68,214.654a3.118,3.118,0,0,0-1.094.2l-.131.78a2.85,2.85,0,0,1,.984-.159c.336,0,.583.038.583.312a.577.577,0,0,1-.03.228s-.265-.022-.389-.022c-.781,0-1.6.334-1.6,1.342a.859.859,0,0,0,.872.976,1.171,1.171,0,0,0,.927-.416l-.029.346h.8l.355-2.494A1.069,1.069,0,0,0,303.68,214.654Zm.194,2.03c.017.153-.1.867-.64.867a.329.329,0,0,1-.353-.342c0-.248.134-.545.8-.545A.591.591,0,0,1,303.874,216.684Z" transform="translate(-283.269 -213.835)"/><path class="a" d="M337.822,218.737c.263-1.5.312-2.716.94-2.494a3.489,3.489,0,0,1,.336-1.05.952.952,0,0,0-.175-.012c-.4,0-.7.554-.7.554l.08-.509h-.842l-.563,3.51h.928Z" transform="translate(-315.443 -214.322)"/></g></g></g></svg>