<svg xmlns="http://www.w3.org/2000/svg" width="23.661" height="16.902" viewBox="0 0 23.661 16.902"><defs><style>.a{fill:#fff;}</style></defs><g transform="translate(3.5 2.5)"><g transform="translate(0 0)"><path class="a" d="M35.2,49.727a1.764,1.764,0,0,1-1.227-.517L27.39,42.624a1.794,1.794,0,0,1-.194-2.389,1.7,1.7,0,0,1,2.518-.129L35.2,45.595h.065l12.2-12.2a1.79,1.79,0,0,1,2.389-.194,1.7,1.7,0,0,1,.129,2.518L36.43,49.275A1.7,1.7,0,0,1,35.2,49.727Z" transform="translate(-30.325 -35.325)"/></g></g></svg>