<svg xmlns="http://www.w3.org/2000/svg" width="45.006" height="45.003" viewBox="0 0 45.006 45.003"><defs><style>.a{fill:#da1884;}.b{fill:#e9eff4;}.c{fill:#fdfbee;}</style></defs><g transform="translate(0 -0.017)"><ellipse class="a" cx="22.501" cy="22.501" rx="22.501" ry="22.501" transform="translate(0 0.017)"/><g transform="translate(0.06 1.792)"><path class="b" d="M131.249,470.129c-.005.01-.012.017-.017.027.041.01.081.024.122.033Z" transform="translate(-119.738 -431.312)"/><path class="b" d="M114.855,104.225l-.055-.112c.458-.069.489-.391.838-.51.4-.13.261.012.651,0,.316-.014.508.216.869.048a1.241,1.241,0,0,1-.372.366,2.809,2.809,0,0,1-.954.51A.934.934,0,0,1,114.855,104.225Z" transform="translate(-104.845 -96.135)"/><path class="c" d="M18.357,86.8a.975.975,0,0,1-.273.51,4.413,4.413,0,0,0-.96,2.324c-.074.784-.029,1.75-.91,2.136-.5.217-1.21.178-1.545.544a1.086,1.086,0,0,0-.2.381q-.324.916-.651,1.832c-.28-.019-.565-.043-.843-.067.33.081.558.427.36.664a.82.82,0,0,0-.906.27.9.9,0,0,0-.05.813,2.851,2.851,0,0,0,2.2,1.634c-.18.265-.731.149-1.068-.028A10.513,10.513,0,0,1,8.471,92.48a6.8,6.8,0,0,0-1.05-2.221c-.477-.552-1.2-.957-1.675-1.509-.669-.793-.795-1.822-1.571-2.547-.434-.414-1.105-.922-.721-1.365.154-.182.484-.355.354-.548a.917.917,0,0,0-.2-.154c-.261-.217-.081-.558.05-.837a2.566,2.566,0,0,0,.124-1.524,4.575,4.575,0,0,1-1.49-1.645c-.192-.385-.448-.865-.98-.87-.137-.3-.28-.6-.417-.894a.4.4,0,0,1-.335.188A19.086,19.086,0,0,1,7.448,65.833c.088-.029.173-.068.261-.106.935-.423,1.68-1.058,2.585-1.52a1.172,1.172,0,0,1,.627-.169c.223.015.434.192.354.355a.414.414,0,0,1-.18.164,20.158,20.158,0,0,1-3.454,1.815.715.715,0,0,0-.371.241c-.125.2.086.442.354.514a1.979,1.979,0,0,0,.838-.019.857.857,0,0,0-.18.894c.254.019.335-.25.41-.438.309-.745,1.842-1.049,1.742-1.834.415.168.838-.208,1.092-.515s.819-.62,1.129-.346c.017.153.041.307.06.462l1.644-.323a.55.55,0,0,0-.237.789.941.941,0,0,0,.98.283c-.005.226-.266.4-.5.534a7.526,7.526,0,0,1-1.947.885l.161.259a.189.189,0,0,1-.055.011c-.446.033-.918-.216-1.4-.168-.292.029-.651.029-.819.259-.024.029-.129.433-.055.4l.776-.346a.778.778,0,0,1,.055.524,1.886,1.886,0,0,1,.925.158,1.954,1.954,0,0,1-1.78.832c-.007-.173-.019-.346-.026-.519a1.7,1.7,0,0,0-1.408.771,3.263,3.263,0,0,1-1.054,1.135c-.309.164-.688.226-1.023.361s-.632.4-.563.688c.031.134.142.259.137.4-.019.259-.409.381-.669.548-.446.289-.558.818-1.035,1.073a5.048,5.048,0,0,1-1.21.279c-.4.1-.807.409-.644.712-.2.053-.441-.063-.46-.226a8.92,8.92,0,0,0-1.375,3.483c.354.192.712-.246.781-.578s.446-.765.793-.568c-.081.476-.161.948-.24,1.424a.333.333,0,0,0,.026.269c.069.1.216.144.33.216.316.212.273.587.292.909a1.974,1.974,0,0,0,.453,1.115c-.026-.068-.043-.134-.062-.2a2.089,2.089,0,0,0,1.353-.323,2.01,2.01,0,0,1,.6-.375,1.635,1.635,0,0,1,.776.033,4.669,4.669,0,0,1,2.152.836,5.618,5.618,0,0,0,.752.755c.719.471,1.936.264,2.594.788a1.551,1.551,0,0,1,.287,1.687c-.36-.153-.843.232-.632.506a1.107,1.107,0,0,1,.7-.337c.285-.005.534.3.323.438.5-.491,1.711-.289,1.9.322.7.039,1.4.076,2.091.12C16.264,85.956,18.4,86,18.357,86.8Z" transform="translate(-0.56 -58.943)"/><path class="c" d="M120.684,52.578a.532.532,0,1,1-.355-1c.184-.043.439-.022.5-.2a.575.575,0,0,0,.007-.172.787.787,0,0,1,.625-.707,2.3,2.3,0,0,1,1.008.046,1.25,1.25,0,0,1,.1.8l-.685.029c.021.379-.017.857-.369,1-.316.125-.728-.108-.99.1" transform="translate(-109.533 -46.824)"/><path class="c" d="M160.176,18.526c.623-.3,1.15-.769,1.765-1.085a8.113,8.113,0,0,1,3.479-.628l8.11-.252q-.94.515-1.881,1.032a2.282,2.282,0,0,1-1.655.41.878.878,0,0,0,.851.867c-1.111.687-2.652-.015-3.824.561-.491.242-.887.7-1.428.784-.312.05-.637-.034-.947.034-.52.113-.848.606-1.232.973a1.714,1.714,0,0,1-1.672.512c-.578-.2-.881-1.063-.417-1.464a3.888,3.888,0,0,1,.824-.369c.269-.137.482-.506.28-.731-.088-.1-.232-.136-.312-.24s-.079-.275-.151-.4c-.275-.482-1.038.167-1.559-.027" transform="translate(-147.12 -16.561)"/><path class="b" d="M236.7,50.9a5.455,5.455,0,0,0,1.025-.458,1.278,1.278,0,0,1,1.083-.084c.1.249-.187.475-.439.565a3.073,3.073,0,0,1-1.516.132" transform="translate(-216.106 -46.651)"/><path class="c" d="M261.556,51.214a1.137,1.137,0,0,1-.311-.014,4.276,4.276,0,0,1-1.217-.549,4.114,4.114,0,0,0-3.164-.145,1.206,1.206,0,0,0,.328-.9l-.142.038c-1.625-.719-3.531-1.466-5.3-.983-.41.114-.781.284-1.2.393a5.928,5.928,0,0,0-1.308.375c-.384.208-.589.668-.259.919.28.214.726.156,1.117.185s.826.321.614.573q-2.549.91-5.1,1.831a1.331,1.331,0,0,1,1.129,1.486,9.487,9.487,0,0,1-1.7-.218c-.838-.033-1.638.531-1.655,1.17s.745,1.23,1.583,1.221a9.228,9.228,0,0,1,1.849-.172,1.753,1.753,0,0,1,.817-1.118,3.532,3.532,0,0,1,2.94-.844,3.608,3.608,0,0,1,.918.444q.94.568,1.881,1.145c.2-.156.4-.313.6-.464l1.03.828c.173-.09.354-.176.527-.266.124.246.254.487.379.734.05-.27.093-.535.136-.8a3.26,3.26,0,0,0,1.215-.123c.372-.138.645-.478.489-.772-.081-.156-.273-.279-.311-.446-.081-.332.539-.558.942-.408a1.512,1.512,0,0,1,.764.81c.093-.322.179-.639.273-.962a7.473,7.473,0,0,0,1.643,2.146,8.717,8.717,0,0,0-3.8.295,2.258,2.258,0,0,0,1.682.629,1.57,1.57,0,0,1,.838.085.615.615,0,0,1,.242.446c.1.455.2.9.292,1.354a5.04,5.04,0,0,0-2.513-.387c-.875-.018-1.9-.2-2.221-.823a1.129,1.129,0,0,0-.4,1.123c-.906-.165-1.948-.43-2.209-1.112a1.531,1.531,0,0,1-1.78-.7c-.069-.194-.088-.431-.311-.535a.974.974,0,0,0-.472-.038c-1.346.119-2.686.233-4.025.352a7.206,7.206,0,0,0-2.134.408c-.645.27-1.159.8-1.085,1.36a7.643,7.643,0,0,0-2.988,2.322,1.179,1.179,0,0,0-.328.962c.062.256.285.473.354.725.118.431-.2.848-.34,1.274-.384,1.212.82,2.353,1.938,3.271a3.271,3.271,0,0,0,1.905.913,4.378,4.378,0,0,0,1.377-.28,12.8,12.8,0,0,1,4.037-.518c-.311.185.012.587.4.649s.8-.034,1.172.066c.85.232.733,1.183.348,1.8.192-.029.391-.058.589-.085-.1.208-.211.417-.316.62a1.626,1.626,0,0,1,1.335,2.158c-.266.877-.948,1.681-.966,2.581a3.677,3.677,0,0,0,.391,1.439q.747,1.783,1.492,3.569c1.39.127,2.189-1.223,3.479-1.644a5.4,5.4,0,0,0,1.433-.469.482.482,0,0,0-.223-.886,1.233,1.233,0,0,0,1.2-.991,3.279,3.279,0,0,1,.005-.411,1.286,1.286,0,0,1,.359-.531,16.025,16.025,0,0,0,2.262-3.538c.166-.328.335-.649.5-.976.632-1.217,1.258-2.429,1.89-3.647.247-.478.5-.951.743-1.431a1.476,1.476,0,0,1-1.744.052,7.045,7.045,0,0,1-1.186-1.212c-.342-.346-.8-.653-.963-1.074a5.007,5.007,0,0,1-.13-.753,5.261,5.261,0,0,0-.918-1.491,1.2,1.2,0,0,1-.038-1.563,56.188,56.188,0,0,1,3.563,5.359,1.307,1.307,0,0,1,.738-.668c.254-.1.539-.147.807-.232a1.409,1.409,0,0,0-.014-2.788,9.184,9.184,0,0,1-1.092-.308c-.335-.151-.577-.5-.366-.748a.959.959,0,0,1,1-.1c.33.138.572.37.881.525.223.114.484.189.726.294,1.31.573,1.632,1.875,1.907,3.011.149.611.318,1.217.517,1.814.007-.128.005-.261.005-.388C268.9,59.953,266.112,54.948,261.556,51.214Zm2.511,6.879a1.11,1.11,0,0,1-.491-.185,1.125,1.125,0,0,1-.541-.531c-.081-.265.086-.569-.1-.8a1.331,1.331,0,0,0-.372-.265,1.5,1.5,0,0,1-.683-.828.533.533,0,0,1,.415-.71.489.489,0,0,1,.458.18l-.254.1c.427.038.627.531.3.743-.043.033-.1.062-.1.109a.1.1,0,0,0,.057.076,3.822,3.822,0,0,0,1.011.444c.347.138.688.393.633.687l-.328.094c-.118.09-.024.252.1.341s.285.18.292.312S264.253,58.1,264.067,58.093Z" transform="translate(-223.962 -45.079)"/><path class="c" d="M445.611,343.457l-.448.318a1.213,1.213,0,0,1-.687,1.408c-.28.113-.652.163-.747.45-.079.244.11.491.136.745.041.422-.354.738-.639,1.052s-.436.9-.057,1.093a.773.773,0,0,0,.287.062,1.781,1.781,0,0,0,1.2-.192c.965-.688.048-2.556,1-3.263.136-.1.306-.172.379-.323C446.261,344.362,445.432,343.92,445.611,343.457Z" transform="translate(-405.327 -316.277)"/></g></g></svg>