<svg height="25" viewBox="0 0 25 25" width="25" xmlns="http://www.w3.org/2000/svg" xmlns:xlink="http://www.w3.org/1999/xlink"><clipPath id="a"><circle cx="-6456.5" cy="-19462.5" r="12.5"/></clipPath><g clip-path="url(#a)" transform="translate(6469 19475)"><g transform="translate(-6475.25 -19475)"><path d="m0 0h37.5v25h-37.5z" fill="#006c35"/><path d="m150.866 693.736a.192.192 0 0 0 -.089.034.662.662 0 0 0 -.278.467c-.006.122-.029.122.052.2.058.084.116.075.233.014a.247.247 0 0 0 .112-.164c.028-.139-.146.066-.169-.089-.039-.144.072-.2.178-.342 0-.066 0-.119-.039-.12zm1.7.009c-.033 0-.073.046-.128.147a.621.621 0 0 0 -.087.594.894.894 0 0 1 -.081 1.177.292.292 0 0 1 -.377.051.4.4 0 0 1 -.225-.317 4.347 4.347 0 0 0 -.034-1.022.185.185 0 0 0 -.309-.062 2.333 2.333 0 0 0 -.561 1.152c-.087.28-.179.2-.244.086-.158-.148-.169-1.3-.359-1.114-.305.872.175 1.827.508 1.734.24.1.392-.358.491-.858.067-.14.119-.156.153-.084-.009.665.048.814.219 1.016a.552.552 0 0 0 .722.013l.3-.3a.179.179 0 0 1 .247-.013c.091.083.079.225.273.323a.6.6 0 0 0 .594-.125c.109-.187.135-.251.186-.322.078-.1.211-.058.211-.025-.012.058-.091.115-.037.219.092.069.114.025.169.009.193-.092.339-.512.339-.512.008-.157-.081-.145-.138-.113-.074.045-.079.061-.153.106-.095.014-.278.076-.369-.064a5.562 5.562 0 0 1 -.164-.575c0-.012-.124-.268-.009-.284.058.011.182.043.2-.061.061-.1-.131-.388-.261-.533a.281.281 0 0 0 -.42-.013c-.106.1-.09.206-.111.309a.483.483 0 0 0 .1.422 1.284 1.284 0 0 1 .234.853.342.342 0 0 1 -.308.156c-.082-.018-.215-.053-.286-.577-.054-.4.013-.951-.155-1.211-.038-.1-.071-.193-.125-.186zm-.539.042c-.051 0-.107.064-.153.178a2.894 2.894 0 0 0 -.08.542c-.032.135.141.193.22.019a1.662 1.662 0 0 0 .127-.591c-.018-.1-.063-.153-.114-.148zm1.99.036c-.052 0-.094.035-.109.113a1.188 1.188 0 0 0 .02.431 1.528 1.528 0 0 0 .242.367c.345.464.676.929 1 1.411.05.358.087.708.111 1.056a21.281 21.281 0 0 1 .02 2.52c.143.006.373-.231.453-.578a16.829 16.829 0 0 0 -.023-1.742c0-.118-.011-.258-.019-.4.373.609.734 1.254 1.089 1.963.129-.061.1-.79.025-.892-.284-.611-.676-1.215-.8-1.447-.045-.084-.2-.318-.381-.588-.033-.385-.07-.711-.094-.809-.059-.407.167.046.136-.191a2.6 2.6 0 0 0 -.562-1.055c-.085-.121-.084-.146-.216.03a.776.776 0 0 0 -.055.467c-.035-.05-.078-.11-.139-.184-.229-.2-.243-.207-.433-.367a.47.47 0 0 0 -.261-.1zm5.9.061c-.025 0-.053.008-.084.055a.355.355 0 0 0 -.122.269c.014.214.053.434.067.648l.016.086a.784.784 0 0 0 -.055-.064c-.418-.439.192-.072-.08-.411a3.247 3.247 0 0 0 -.494-.484c-.1-.064-.158-.186-.191.022a4.112 4.112 0 0 0 -.014.547.737.737 0 0 0 .164.341c.279.343.564.707.85 1.087.06.776.076 1.487.137 2.264-.009.332-.111.774-.208.816 0 0-.148.085-.247-.009a2.968 2.968 0 0 1 -.359-.48.219.219 0 0 0 -.35 0 4.83 4.83 0 0 0 -.616 1.161c-.051.08-.193.149-.351-.006a1.637 1.637 0 0 1 -.217-1.131 1.251 1.251 0 0 0 -.119 1.217.955.955 0 0 0 .444.5.311.311 0 0 0 .462-.05c.211-.218.214-.777.313-.887a.185.185 0 0 1 .328-.078.807.807 0 0 0 .3.259.5.5 0 0 0 .663.047.768.768 0 0 0 .353-.431 15.133 15.133 0 0 0 .028-2.431c.148.209.295.423.441.639a15.858 15.858 0 0 1 .072 1.991c-.015.128.445-.381.442-.622 0-.211 0-.4 0-.58.223.357.439.719.644 1.086.127-.067.083-.784 0-.883-.214-.359-.488-.747-.7-1.047-.042-.379-.1-.826-.125-.962-.04-.214-.081-.534-.142-.788a2.7 2.7 0 0 1 -.052-.445c.025-.071.119 0 .166-.08a2.838 2.838 0 0 0 -.4-1.109c-.057-.1-.159-.067-.286.1-.118.11-.075.361-.03.6.117.609.221 1.229.3 1.847-.152-.227-.339-.5-.522-.766 0-.025-.023-.119-.023-.12s-.025-.5-.047-.614c0-.047-.015-.061.034-.055a.286.286 0 0 0 .092.061c.053.01.1-.08.067-.162l-.491-.906a.139.139 0 0 0 -.067-.043zm-15.226.016c-.091 0-.191.054-.152.162-.023.059.177.26.213.37.031.079-.031.331.034.355s.143-.175.175-.361c.018-.1 0-.451-.233-.522a.2.2 0 0 0 -.038 0zm17.346 0c-.021 0-.046.035-.084.117a1.086 1.086 0 0 0 -.087.664 36.525 36.525 0 0 1 .423 4.311 1.4 1.4 0 0 1 -.084.355 2.838 2.838 0 0 1 -.414.483c-.137.1-.428.2-.523.275-.3.175-.3.376-.059.383a1.506 1.506 0 0 0 1.262-.6 2.01 2.01 0 0 0 .2-.78 18.2 18.2 0 0 0 -.23-3.814 1.887 1.887 0 0 1 -.041-.358c.027-.07.165.007.214-.073.072-.073-.356-.622-.506-.856-.03-.059-.048-.107-.075-.1zm-4.416.023c-.017 0-.043.029-.091.092a2.061 2.061 0 0 0 -.114.938 20.383 20.383 0 0 1 .563 4.514c.143 0 .309-.328.38-.653a5.539 5.539 0 0 0 -.038-.984c-.012-.263-.3-2.4-.356-2.6-.07-.377.279-.05.241-.269-.12-.276-.421-.679-.516-.919-.035-.064-.04-.124-.069-.119zm-10.752.03a.112.112 0 0 0 -.086.088c-.008.033.014.088-.016.1s-.082.006-.08-.086a.152.152 0 0 0 -.034-.078.068.068 0 0 0 -.045-.011c-.029 0-.028.009-.044.033a.271.271 0 0 0 -.016.077c0 .033-.017.044-.041.048s-.02 0-.042-.011-.028-.02-.028-.044a.254.254 0 0 0 -.014-.081.087.087 0 0 0 -.05-.028c-.112 0-.12.129-.114.178-.008.009-.013.238.141.3.206.1.591.057.575-.275 0-.029-.007-.128-.009-.155a.088.088 0 0 0 -.1-.061zm2.759 0a.461.461 0 0 0 -.187.052.355.355 0 0 0 -.061.47c.1.049.209.154.139.212-.3.316-1.064.843-1.1.939a.024.024 0 0 0 0 0 2.186 2.186 0 0 0 .573 0s0 0 0 0a8.091 8.091 0 0 0 .95-.958c-.041-.035-.078-.06-.119-.1s-.039-.075 0-.112a.311.311 0 0 0 .031-.475.505.505 0 0 0 -.234-.047zm7.212 0c-.021 0-.046.034-.084.116a1.316 1.316 0 0 0 -.148.664c.2 1.391.263 2.608.394 4a.549.549 0 0 1 -.1.408 3.921 3.921 0 0 1 -1.327.967c-.056.063.139.33.391.33a1.481 1.481 0 0 0 1.134-.908 1.617 1.617 0 0 0 .258-.7 15.218 15.218 0 0 0 -.283-3.531.581.581 0 0 1 .013-.247c.027-.033.12 0 .169-.08.072-.074-.192-.683-.342-.917-.03-.059-.048-.106-.075-.1zm-11.169.047a.185.185 0 0 0 -.139.117 4.022 4.022 0 0 0 .014.651 7.1 7.1 0 0 1 .183 1.047c.014.495-.286.214-.272-.031a2.227 2.227 0 0 0 -.011-.947c-.049-.127-.105-.159-.224-.138-.094-.006-.337.259-.4.7a4.136 4.136 0 0 0 -.081.425c-.033.226-.183.386-.287-.031-.09-.3-.146-1.052-.3-.877-.043.584-.095 1.612.4 1.717.6.058.269-1.015.486-1.209.041-.1.117-.1.123.023v.911a.438.438 0 0 0 .341.445c.157-.012.262-.008.324.145q.037.788.075 1.577s.364.1.381-.886a9.232 9.232 0 0 1 -.037-1.183c0-.111.145-.117.244-.062.157.111.227.247.47.192.371-.1.594-.282.6-.567a2.471 2.471 0 0 0 -.17-.812c.016-.049-.071-.177-.055-.227.067.1.168.1.191 0a.812.812 0 0 0 -.32-.494c-.131-.116-.323-.091-.394.15a1.314 1.314 0 0 0 .3.877.858.858 0 0 1 .076.438.234.234 0 0 1 -.3-.059s-.3-.221-.3-.27a1.059 1.059 0 0 0 -.027-.7.94.94 0 0 0 -.2-.384c-.074-.078-.174-.078-.222 0a1.324 1.324 0 0 0 .025.93c.068.2.173.325.124.325-.041.113-.125.087-.186-.044a3.248 3.248 0 0 1 -.1-.853c-.026-.225-.055-.7-.2-.826a.14.14 0 0 0 -.131-.068zm2.108 0c-.03 0-.063.021-.1.03a.3.3 0 0 0 -.209.366c.151.917.249 1.616.4 2.533.023.107-.067.249-.183.234-.2-.134-.246-.4-.583-.392a.656.656 0 0 0 -.556.523 1.27 1.27 0 0 0 0 .6.488.488 0 0 0 .556.138c.148-.061.27-.207.322-.172s0 0 0 0c.032.056 0 .533-.7.9-.426.191-.766.237-.948-.111-.113-.218.008-1.046-.27-.855-.824 2.123 1.93 2.42 2.238.087.02-.066.081-.132.123-.116.019.008.036.034.042.081-.064 2.112-2.13 2.256-2.481 1.592a2.049 2.049 0 0 1 -.122-.714.356.356 0 0 0 -.084-.228c-.084-.063-.2.1-.22.386a2.556 2.556 0 0 0 -.025.513c.11 1.668 2.769.951 3.2-.427a4.589 4.589 0 0 0 .067-1.316h.009c.264.284.634.036.716-.062a.119.119 0 0 1 .183-.017.427.427 0 0 0 .642-.183 5.792 5.792 0 0 0 .089-.791.8.8 0 0 0 -.286.119.075.075 0 0 0 -.02.037c-.012.076-.023.151-.034.227a.057.057 0 0 1 -.006.017.072.072 0 0 1 -.025.023c-.047.026-.13.011-.134-.058-.064-.29-.326-.328-.486.122-.107.087-.3.1-.323-.027.026-.3-.1-.342-.339-.2-.078-.6-.156-1.168-.234-1.766.1 0 .195.071.287-.045a3.358 3.358 0 0 0 -.433-1.008.172.172 0 0 0 -.017-.017l-.008-.006h-.008l-.016-.006a.084.084 0 0 0 -.033 0zm8.217 0c-.105 0-.222.063-.177.2-.027.072.226.316.267.45.073.205-.056.4.02.43s.168-.212.2-.437a.68.68 0 0 0 -.272-.633.235.235 0 0 0 -.044 0zm-6.4.225a.155.155 0 0 1 .134.1c.03.067.015.13-.034.142s-.113-.032-.144-.1-.015-.132.034-.144zm11.875.308a.155.155 0 0 0 -.159.212c-.024.078.205.343.242.487.033.1-.051.435.019.466s.154-.229.188-.473c.018-.134-.081-.6-.249-.686a.169.169 0 0 0 -.041-.006zm-6.566.162c.009.039.018.079.023.119.02.087.037.173.055.258-.076-.1-.139-.189-.166-.219-.171-.2 0-.134.088-.158zm1.512.744a.115.115 0 0 0 -.086.089c-.008.033.016.086-.014.1s-.084.007-.081-.084a.158.158 0 0 0 -.034-.08.069.069 0 0 0 -.045-.011c-.029 0-.028.009-.044.033a.286.286 0 0 0 -.016.076c0 .033-.015.044-.039.049s-.022 0-.044-.011-.028-.02-.028-.044a.254.254 0 0 0 -.014-.081.086.086 0 0 0 -.05-.027c-.112 0-.119.128-.113.177-.008.009-.014.24.139.3.206.1.593.055.577-.277 0-.029-.008-.128-.011-.155a.088.088 0 0 0 -.1-.061zm-6.906.069a.166.166 0 0 0 -.1.03.423.423 0 0 0 -.139.561.274.274 0 0 0 .3.1c.178.022.284-.334.284-.334s.005-.1-.206.089c-.089.017-.1-.016-.123-.066a.443.443 0 0 1 .028-.28c.02-.056 0-.091-.042-.1zm9.762.045a.231.231 0 0 0 -.236.2c0 .081.037.126.03.2-.011.042-.054.07-.158.02.016-.015-.067-.133-.067-.133-.081-.049-.189 0-.259.049a.4.4 0 0 0 -.023.314c.116.215.515.581.7.584 0-.194.022-.451.033-.611 0-.06.019-.127.076-.142s.158.058.159 0a.829.829 0 0 0 -.1-.391.2.2 0 0 0 -.155-.084zm-8.081.674h-.008a1 1 0 0 1 -.1.088c-.09.1-.105.173-.1.377.005.022.17.48.309.8a2.485 2.485 0 0 1 .117 1.08 2.659 2.659 0 0 1 -1.091 1.141.57.57 0 0 1 -.456 0 .283.283 0 0 1 -.12-.259 2.57 2.57 0 0 0 1.1-1.133 1.159 1.159 0 0 0 .03-.816.776.776 0 0 0 -.184-.378c.061-.029.221.088.245.014a1.188 1.188 0 0 0 -.314-.58.265.265 0 0 0 -.386-.023c-.132.074-.161.339-.1.57.071.174.262.205.4.556 0 .022.047.262-.022.359a4.3 4.3 0 0 1 -.822.772h-.006c0-.014 0-.05 0-.108 0-.106.039-.345.036-.386-.236.153-.315.621-.358.759a11.216 11.216 0 0 0 -1.67 1.141c-.2.318 1.405-.366 1.592-.448.036.039.039.175.145.3a.851.851 0 0 0 .869.28 2.757 2.757 0 0 0 1.255-1.044c.049-.071.125-.126.2-.072a1.966 1.966 0 0 0 1.78.934c.2-.245.105-.366.023-.417-.025-.017-.433-.176-.5-.334-.04-.148.057-.278.252-.377a8.743 8.743 0 0 0 1.642-.314 1.445 1.445 0 0 1 .181-.562.263.263 0 0 1 .092-.1.054.054 0 0 0 0-.016l-.091-.053-1.786-.008a.187.187 0 0 1 -.048-.025v-.013a.136.136 0 0 1 .056-.033c.427-.058 1.184-.182 1.234-.911a.6.6 0 1 0 -1.188.012c-.016.1.033.291-.067.313-.656.06-1.373.471-1.4.766h-.033a.171.171 0 0 1 -.089-.181 3.522 3.522 0 0 0 -.45-1.528c-.092-.093-.133-.13-.159-.134h-.012zm1.709.269a.113.113 0 0 0 -.086.088c-.008.033.016.088-.014.1s-.084.007-.081-.084a.159.159 0 0 0 -.034-.08.064.064 0 0 0 -.044-.011c-.029 0-.03.009-.045.033a.286.286 0 0 0 -.016.077c0 .033-.015.044-.039.048s-.02 0-.042-.011-.03-.02-.03-.044a.26.26 0 0 0 -.012-.081.09.09 0 0 0 -.052-.027c-.112 0-.119.128-.112.177-.008.009-.014.24.139.3.206.1.7.04.577-.277 0-.029-.008-.128-.011-.155a.089.089 0 0 0 -.1-.061zm6.9.283a.034.034 0 0 0 -.017 0s-.953.678-.977.7c-.094.084-.047.379 0 .345a3.8 3.8 0 0 0 1.009-.7c.042 0 .062-.334-.016-.348zm-6 .1a.244.244 0 0 1 .139.038c.071.041.115.1.109.148a.07.07 0 0 1 -.009.011.174.174 0 0 1 -.187-.016.187.187 0 0 1 -.109-.148.053.053 0 0 1 .006-.016v-.006l.008-.008a.091.091 0 0 1 .045-.017zm-8.345.172a1.587 1.587 0 0 0 -1.236 1c.521-.25 1.033-.491 1.563-.75-.085-.128-.005-.243-.326-.252zm1.6.222a.134.134 0 0 1 .127.092.16.16 0 0 1 -.028.159s0 0 0 0c-.021.027-.094.016-.145.016a.141.141 0 0 1 -.131-.064c-.018-.057.037-.112.061-.155l.011-.012a.163.163 0 0 1 .086-.038h.02zm12.558.2a.166.166 0 0 0 -.133.227c-.024.078.119.35.156.5.034.1-.043.394.027.425s.232-.173.227-.433c.019-.134-.048-.626-.216-.709a.157.157 0 0 0 -.061 0zm-10.665.481c-.078.005-.147.047-.116.156 0 .079.219.176.233.359.032.076-.048.318.019.341s.146-.168.178-.347c.018-.1-.077-.442-.237-.5a.269.269 0 0 0 -.077-.006zm3.192.436h.02a5.561 5.561 0 0 0 .747.086c.207.013.31.176.116.244s-.376.117-.377.394a.382.382 0 0 1 0 .242l-.006.008h-.009-.009c-.046.007-.112-.037-.161-.062a1.013 1.013 0 0 1 -.5-.731.186.186 0 0 1 .187-.194zm-7.8.339c-.012 0-.037.038-.07.08a1.549 1.549 0 0 0 -.158 1.375.343.343 0 0 0 .333.111.611.611 0 0 0 .222-.591c-.062-.1-.11-.112-.172-.03-.13.264-.184.083-.2-.064a3.385 3.385 0 0 1 .037-.741c.016-.1.016-.141 0-.141zm10.008.615a.134.134 0 0 0 -.069.014 1.246 1.246 0 0 0 -.277.236c-.04.031-.036.058-.023.111.031.072.087.05.15.016.084-.011.124.043.117.144a.185.185 0 0 0 .017.18.139.139 0 0 0 .175.022 3.309 3.309 0 0 1 .6-.211c.073 0 .069-.2-.047-.2a.687.687 0 0 0 -.442.134c-.093.022-.109-.035-.13-.086-.024-.126.053-.215.038-.309a.218.218 0 0 0 -.113-.045zm6.408.239c-.037 0-.076.006-.133.011s-.083.04-.094.114c0 .112.073.107.144.151a.122.122 0 0 1 0 .184c-.067.061-.114.095-.181.156-.032.054-.051.136.045.162.178.05.591-.218.591-.224a.131.131 0 0 0 .039-.145c-.039-.044-.127-.018-.186-.025-.028 0-.12-.014-.076-.1a.557.557 0 0 0 .075-.144c.028-.061 0-.1-.1-.136a.558.558 0 0 0 -.123-.011zm-2.677 5.42a.281.281 0 0 0 -.1.519c-3.13 0-7.933-.053-8.963-.053-.576 0-2.4-.069-2.434-.069a1.846 1.846 0 0 0 1.7.7c1.39 0 7.831-.017 9.664-.017a.642.642 0 0 0 .114.672h.008.012c.121.029.175-.059.216-.123a12.569 12.569 0 0 0 1.406 0c.068.1.137.2.267.18.228-.049.408-.074.414-.538 0 0-.023-.79-.542-.741-.123.018-.467.053-.467.053-.4-.047-.691-.052-1.139-.069.041-.052.114-.265.025-.342a.145.145 0 0 0 -.106-.027l-.008-.008c-.023-.033-.035-.114-.05-.134zm.212 1.13c.457.022.886 0 1.342.026a.165.165 0 0 1 -.011.228h-.008-.013l-.383-.011a.088.088 0 0 0 0-.022c-.035-.1-.29-.1-.35-.016v.006.008a.063.063 0 0 0 0 .011.07.07 0 0 0 0 .013 3.571 3.571 0 0 1 -.581-.014c-.059-.073-.052-.205.017-.237z" fill="#fff" transform="translate(-134.702 -687.831)"/></g></g></svg>