<svg xmlns="http://www.w3.org/2000/svg" width="94.875" height="113.998" viewBox="0 0 94.875 113.998"><defs><style>.a{opacity:0.45;}.b{fill:#510027;}</style></defs><g class="a" transform="translate(-42.946)"><g transform="translate(65.372 65.162)"><g transform="translate(0)"><path class="b" d="M159.044,293.314a2.227,2.227,0,0,0-3.148,0,5.965,5.965,0,0,1-8.428,0,2.227,2.227,0,1,0-3.149,3.149,10.424,10.424,0,0,0,14.725,0A2.226,2.226,0,0,0,159.044,293.314Z" transform="translate(-143.667 -292.662)"/></g></g><g transform="translate(99.365 65.162)"><path class="b" d="M311.717,293.314a2.227,2.227,0,0,0-3.148,0,5.966,5.966,0,0,1-8.428,0,2.227,2.227,0,1,0-3.149,3.149,10.424,10.424,0,0,0,14.725,0A2.226,2.226,0,0,0,311.717,293.314Z" transform="translate(-296.34 -292.662)"/></g><g transform="translate(42.946)"><g transform="translate(0)"><path class="b" d="M137.81,63.827a9.651,9.651,0,0,0-8.657-9.566v-3.5A38.721,38.721,0,0,0,112.85,19.2a22.712,22.712,0,0,0-44.877,0,38.721,38.721,0,0,0-16.3,31.565v3.491a9.65,9.65,0,0,0-8.714,9.571l-.01,5.64a9.633,9.633,0,0,0,9.633,9.651h1.079a50.28,50.28,0,0,0,36.189,34.814,2.228,2.228,0,0,0,1.076,0l.037-.009a50.436,50.436,0,0,0,11.686-4.511,2.226,2.226,0,1,0-2.109-3.922,45.974,45.974,0,0,1-10.15,3.983A45.839,45.839,0,0,1,56.123,65.066V62.223l.961-.218a110.967,110.967,0,0,0,35.8-15.142,39.76,39.76,0,0,0,31.556,15.559h.256v2.63a46.025,46.025,0,0,1-5.449,21.7,2.226,2.226,0,1,0,3.923,2.106,50.206,50.206,0,0,0,3.968-9.739h1.044a9.633,9.633,0,0,0,9.633-9.651ZM52.579,74.664h0a5.18,5.18,0,0,1-5.18-5.19l.01-5.64a5.19,5.19,0,0,1,4.261-5.088v6.318a50.675,50.675,0,0,0,.914,9.6h-.005ZM90.412,4.453A18.229,18.229,0,0,1,107.375,15.94a38.691,38.691,0,0,0-33.927,0A18.229,18.229,0,0,1,90.412,4.453ZM124.7,57v.971h-.256A35.311,35.311,0,0,1,96.577,44.36q2.312-1.639,4.536-3.394a2.227,2.227,0,0,0-2.762-3.493A106.408,106.408,0,0,1,56.123,57.657V50.765a34.288,34.288,0,1,1,68.577,0V57Zm7.154,16.145a5.144,5.144,0,0,1-3.634,1.52,50.341,50.341,0,0,0,.933-9.611v-6.3a5.191,5.191,0,0,1,4.2,5.078l.01,5.639A5.144,5.144,0,0,1,131.853,73.144Z" transform="translate(-42.946)"/></g></g><g transform="translate(103.478 31.889)"><path class="b" d="M318.733,143.967a2.226,2.226,0,0,0-3.144-.177l-.031.027a2.227,2.227,0,0,0,2.967,3.321l.031-.027A2.227,2.227,0,0,0,318.733,143.967Z" transform="translate(-314.816 -143.223)"/></g><g transform="translate(91.907 77.07)"><path class="b" d="M301.279,373.543l-12.3-12.3-4.73-12.367a4.249,4.249,0,0,0-4.732-2.661,20.742,20.742,0,0,0-16.6,16.59l-.01.052a4.271,4.271,0,0,0,2.554,4.688l12.138,5.028,9.847,9.847a2.227,2.227,0,0,0,3.149-3.149l-8.586-8.586,5.056-5.056,11.061,11.061a2.227,2.227,0,0,0,3.149-3.149Zm-22.937-5.483-11.02-4.565a16.272,16.272,0,0,1,12.828-12.868l4.323,11.3Z" transform="translate(-262.844 -346.146)"/></g><g transform="translate(132.271 109.545)"><path class="b" d="M447.933,492.652a2.225,2.225,0,1,0,.652,1.574A2.243,2.243,0,0,0,447.933,492.652Z" transform="translate(-444.132 -492)"/></g></g></svg>