<svg xmlns="http://www.w3.org/2000/svg" width="54.73" height="29.32" viewBox="0 0 54.73 29.32"><defs><style>.a{fill:#fff;}.b{fill:#f79f1a;}.c{fill:#0265b5;}</style></defs><g transform="translate(0.001)"><rect class="a" width="54.731" height="29.32" rx="3" transform="translate(0)"/><g transform="translate(14.661 11.212)"><path class="b" d="M35.446,193.794l-.715-3.429a.853.853,0,0,0-.922-.632H30.531l-.029.157A6.741,6.741,0,0,1,35.446,193.794Z" transform="translate(-30.502 -189.668)"/><path class="c" d="M186.939,190.892h-2.118l-1.323,7.762h2.114Z" transform="translate(-174.401 -190.759)"/><path class="c" d="M69.969,198.73l3.331-7.749H71.059l-2.072,5.294-.221-.8a8.282,8.282,0,0,0-2.93-3.217l1.894,6.474Z" transform="translate(-63.735 -190.843)"/><path class="c" d="M247.4,194.016c.008-.881-.558-1.553-1.777-2.109-.741-.359-1.193-.6-1.187-.962,0-.321.382-.667,1.211-.667a3.906,3.906,0,0,1,1.583.3l.191.088.287-1.682a5.485,5.485,0,0,0-1.9-.324c-2.091,0-3.562,1.052-3.576,2.561-.013,1.116,1.052,1.737,1.854,2.109.823.379,1.1.622,1.094.962-.005.52-.656.757-1.264.757a4.439,4.439,0,0,1-1.993-.407l-.271-.124-.3,1.739a6.675,6.675,0,0,0,2.356.412C245.935,196.668,247.38,195.629,247.4,194.016Z" transform="translate(-228.817 -188.659)"/><path class="c" d="M343.052,197.617l2.71,0c.064.27.258,1.163.258,1.163h1.963l-1.713-7.757h-1.634a1.053,1.053,0,0,0-1.108.643l-3.142,7.114h2.224S342.97,197.827,343.052,197.617Zm1.45-3.759c-.01.021.175-.449.282-.741l.143.669s.4,1.854.489,2.242H343.66C343.836,195.583,344.5,193.859,344.5,193.859Z" transform="translate(-321.958 -190.886)"/></g></g></svg>