<svg xmlns="http://www.w3.org/2000/svg" width="25" height="24.999" viewBox="0 0 25 24.999"><defs><style>.a{fill:#da1884;}.b{fill:#e9eff4;}.c{fill:#fdfbee;}</style></defs><g transform="translate(0 -0.017)"><ellipse class="a" cx="12.499" cy="12.499" rx="12.499" ry="12.499" transform="translate(0 0.017)"/><g transform="translate(0.033 1.003)"><path class="b" d="M131.242,470.129c0,.006-.007.01-.01.015.023.006.045.013.068.018Z" transform="translate(-124.847 -448.567)"/><path class="b" d="M114.831,103.925l-.031-.062c.255-.038.272-.217.465-.283.22-.072.145.007.361,0,.175-.008.282.12.482.027a.689.689,0,0,1-.207.2,1.56,1.56,0,0,1-.53.283A.519.519,0,0,1,114.831,103.925Z" transform="translate(-109.27 -99.43)"/><path class="c" d="M10.446,76.679a.542.542,0,0,1-.152.283,2.451,2.451,0,0,0-.533,1.291c-.041.435-.016.972-.505,1.186-.279.12-.672.1-.858.3a.6.6,0,0,0-.113.211l-.361,1.018c-.155-.01-.314-.024-.468-.037.183.045.31.237.2.369a.456.456,0,0,0-.5.15.5.5,0,0,0-.028.452,1.584,1.584,0,0,0,1.224.908c-.1.147-.406.083-.593-.016a5.84,5.84,0,0,1-2.8-2.961A3.776,3.776,0,0,0,4.371,78.6c-.265-.307-.666-.532-.931-.838-.372-.441-.441-1.012-.872-1.415-.241-.23-.614-.512-.4-.758.086-.1.269-.2.2-.3a.509.509,0,0,0-.111-.086c-.145-.12-.045-.31.028-.465a1.425,1.425,0,0,0,.069-.846,2.541,2.541,0,0,1-.828-.914c-.107-.214-.249-.48-.544-.483-.076-.166-.155-.331-.232-.5a.224.224,0,0,1-.186.1,10.6,10.6,0,0,1,3.826-7.065c.049-.016.1-.038.145-.059.52-.235.933-.588,1.436-.844a.651.651,0,0,1,.348-.094c.124.008.241.106.2.2a.23.23,0,0,1-.1.091,11.2,11.2,0,0,1-1.918,1.008.4.4,0,0,0-.206.134c-.07.109.048.245.2.285a1.1,1.1,0,0,0,.465-.01.476.476,0,0,0-.1.5c.141.01.186-.139.228-.243.172-.414,1.023-.583.968-1.019.231.093.465-.115.606-.286s.455-.344.627-.192c.01.085.023.171.033.257l.913-.18a.305.305,0,0,0-.132.438.523.523,0,0,0,.544.157c0,.126-.148.222-.279.3a4.18,4.18,0,0,1-1.081.492l.09.144a.1.1,0,0,1-.031.006c-.248.018-.51-.12-.775-.093-.162.016-.361.016-.455.144-.013.016-.072.24-.031.222l.431-.192a.432.432,0,0,1,.031.291,1.047,1.047,0,0,1,.514.088,1.086,1.086,0,0,1-.989.462c0-.1-.01-.192-.014-.288a.947.947,0,0,0-.782.428,1.813,1.813,0,0,1-.585.631c-.172.091-.382.126-.568.2s-.351.225-.313.382c.017.075.079.144.076.222-.01.144-.227.211-.372.3-.248.16-.31.455-.575.6a2.8,2.8,0,0,1-.672.155c-.224.053-.448.227-.358.4-.111.03-.245-.035-.256-.126A4.955,4.955,0,0,0,.88,71.866c.2.106.4-.137.434-.321s.248-.425.441-.316c-.045.265-.09.526-.133.791a.185.185,0,0,0,.014.149c.038.056.12.08.183.12.175.118.152.326.162.5a1.1,1.1,0,0,0,.252.619c-.014-.038-.024-.075-.034-.112a1.16,1.16,0,0,0,.751-.18,1.117,1.117,0,0,1,.331-.208.908.908,0,0,1,.431.018,2.594,2.594,0,0,1,1.2.464,3.12,3.12,0,0,0,.418.419c.4.262,1.076.146,1.441.438a.861.861,0,0,1,.159.937c-.2-.085-.468.129-.351.281a.615.615,0,0,1,.386-.187c.158,0,.3.166.179.243.276-.273.951-.16,1.057.179.386.021.775.042,1.161.067C9.283,76.212,10.47,76.238,10.446,76.679Z" transform="translate(-0.56 -61.207)"/><path class="c" d="M120.344,51.637a.3.3,0,1,1-.2-.553c.1-.024.244-.012.276-.113a.319.319,0,0,0,0-.1.437.437,0,0,1,.347-.393,1.28,1.28,0,0,1,.56.026.694.694,0,0,1,.053.442l-.38.016c.011.211-.01.476-.205.554-.175.07-.4-.06-.55.058" transform="translate(-114.15 -48.441)"/><path class="c" d="M160.176,17.653c.346-.166.639-.427.98-.6a4.507,4.507,0,0,1,1.933-.349l4.505-.14-1.045.573a1.268,1.268,0,0,1-.919.228.488.488,0,0,0,.473.482c-.617.381-1.473-.009-2.124.312-.273.134-.493.388-.793.436-.174.028-.354-.019-.526.019-.289.063-.471.337-.685.541a.952.952,0,0,1-.929.284c-.321-.113-.489-.59-.232-.813a2.16,2.16,0,0,1,.458-.2c.15-.076.268-.281.155-.406-.049-.054-.129-.075-.174-.133s-.044-.153-.084-.221c-.153-.268-.577.092-.866-.015" transform="translate(-152.924 -16.561)"/><path class="b" d="M236.7,50.617a3.03,3.03,0,0,0,.569-.255.71.71,0,0,1,.6-.047c.055.138-.1.264-.244.314a1.707,1.707,0,0,1-.842.073" transform="translate(-225.262 -48.258)"/><path class="c" d="M251.878,50.01a.632.632,0,0,1-.173-.008,2.375,2.375,0,0,1-.676-.3,2.285,2.285,0,0,0-1.757-.081.67.67,0,0,0,.182-.5l-.079.021a4.579,4.579,0,0,0-2.946-.546c-.228.063-.434.158-.665.218a3.293,3.293,0,0,0-.727.208c-.214.116-.327.371-.144.51.155.119.4.087.621.1s.459.178.341.318q-1.416.506-2.835,1.017a.739.739,0,0,1,.627.825,5.27,5.27,0,0,1-.944-.121c-.465-.018-.91.295-.919.65s.414.683.879.678a5.126,5.126,0,0,1,1.027-.1.974.974,0,0,1,.454-.621,1.962,1.962,0,0,1,1.633-.469,2,2,0,0,1,.51.247q.522.316,1.045.636c.111-.087.22-.174.331-.258l.572.46c.1-.05.2-.1.293-.148.069.137.141.271.211.408.028-.15.051-.3.075-.445a1.811,1.811,0,0,0,.675-.068c.207-.076.359-.266.272-.429-.045-.087-.152-.155-.173-.247-.045-.184.3-.31.523-.226a.84.84,0,0,1,.424.45c.051-.179.1-.355.152-.534a4.151,4.151,0,0,0,.912,1.192,4.842,4.842,0,0,0-2.112.164,1.254,1.254,0,0,0,.934.349.872.872,0,0,1,.465.047.342.342,0,0,1,.134.247c.055.253.111.5.162.752a2.8,2.8,0,0,0-1.4-.215c-.486-.01-1.055-.113-1.234-.457a.627.627,0,0,0-.223.624c-.5-.092-1.082-.239-1.227-.618a.85.85,0,0,1-.989-.389c-.038-.108-.049-.239-.173-.3a.541.541,0,0,0-.262-.021c-.748.066-1.492.13-2.236.2a4,4,0,0,0-1.185.226c-.359.15-.644.445-.6.756a4.246,4.246,0,0,0-1.66,1.29.655.655,0,0,0-.182.534c.034.142.158.263.2.4.066.239-.113.471-.189.708-.214.673.456,1.307,1.076,1.817a1.817,1.817,0,0,0,1.058.507,2.432,2.432,0,0,0,.765-.156,7.11,7.11,0,0,1,2.243-.288c-.173.1.007.326.221.36s.444-.019.651.036c.472.129.407.657.194,1l.327-.047c-.058.116-.117.231-.175.344a.9.9,0,0,1,.742,1.2c-.148.487-.526.934-.537,1.434a2.043,2.043,0,0,0,.217.8q.415.99.829,1.983c.772.071,1.216-.679,1.933-.913a3,3,0,0,0,.8-.261.268.268,0,0,0-.124-.492.685.685,0,0,0,.668-.55,1.823,1.823,0,0,1,0-.229.714.714,0,0,1,.2-.295,8.9,8.9,0,0,0,1.257-1.965c.092-.182.186-.36.278-.542l1.05-2.026c.137-.266.276-.528.413-.795a.82.82,0,0,1-.969.029,3.913,3.913,0,0,1-.659-.673c-.19-.192-.445-.362-.535-.6a2.782,2.782,0,0,1-.072-.419,2.923,2.923,0,0,0-.51-.828.665.665,0,0,1-.021-.868,31.21,31.21,0,0,1,1.979,2.977.726.726,0,0,1,.41-.371c.141-.058.3-.082.448-.129a.783.783,0,0,0-.008-1.549,5.1,5.1,0,0,1-.606-.171c-.186-.084-.32-.276-.2-.416A.533.533,0,0,1,253.72,55c.183.076.318.205.489.292.124.063.269.1.4.163a2.122,2.122,0,0,1,1.059,1.673c.083.339.176.676.287,1.007,0-.071,0-.145,0-.215A10.3,10.3,0,0,0,251.878,50.01Zm1.395,3.821a.616.616,0,0,1-.273-.1.625.625,0,0,1-.3-.295c-.045-.147.048-.316-.055-.447a.739.739,0,0,0-.207-.147.835.835,0,0,1-.379-.46.3.3,0,0,1,.231-.395.272.272,0,0,1,.255.1l-.141.058c.237.021.348.295.166.413-.024.018-.055.034-.055.06a.055.055,0,0,0,.031.042,2.123,2.123,0,0,0,.562.247c.193.076.382.218.352.381l-.182.052c-.066.05-.013.14.055.189s.158.1.162.173S253.376,53.837,253.273,53.832Z" transform="translate(-230.995 -46.602)"/><path class="c" d="M444.425,343.457l-.249.176a.674.674,0,0,1-.381.782c-.155.063-.362.091-.415.25-.044.135.061.273.075.414.023.235-.2.41-.355.585s-.242.5-.031.607a.429.429,0,0,0,.159.034.989.989,0,0,0,.666-.107c.536-.382.027-1.42.556-1.813.075-.055.17-.1.211-.179C444.786,343.959,444.326,343.714,444.425,343.457Z" transform="translate(-422.048 -328.359)"/></g></g></svg>