<svg xmlns="http://www.w3.org/2000/svg" width="99.868" height="119.998" viewBox="0 0 99.868 119.998"><defs><style>.a{opacity:0.45;}.b{fill:#510027;}</style></defs><g class="a" transform="translate(-42.946)"><g transform="translate(66.552 68.591)"><g transform="translate(0)"><path class="b" d="M159.854,293.348a2.344,2.344,0,0,0-3.314,0,6.279,6.279,0,0,1-8.871,0,2.344,2.344,0,0,0-3.315,3.315,10.973,10.973,0,0,0,15.5,0A2.344,2.344,0,0,0,159.854,293.348Z" transform="translate(-143.667 -292.662)"/></g></g><g transform="translate(102.334 68.591)"><path class="b" d="M312.527,293.348a2.344,2.344,0,0,0-3.314,0,6.28,6.28,0,0,1-8.871,0,2.344,2.344,0,1,0-3.315,3.315,10.973,10.973,0,0,0,15.5,0A2.344,2.344,0,0,0,312.527,293.348Z" transform="translate(-296.34 -292.662)"/></g><g transform="translate(42.946)"><g transform="translate(0)"><path class="b" d="M142.8,67.186a10.159,10.159,0,0,0-9.113-10.07v-3.68A40.759,40.759,0,0,0,116.529,20.21a23.907,23.907,0,0,0-47.239,0A40.759,40.759,0,0,0,52.129,53.436v3.675a10.158,10.158,0,0,0-9.173,10.074l-.011,5.937A10.14,10.14,0,0,0,53.086,83.281h1.136a52.926,52.926,0,0,0,38.094,36.647,2.345,2.345,0,0,0,1.132,0l.039-.01a53.09,53.09,0,0,0,12.3-4.748,2.344,2.344,0,1,0-2.22-4.128,48.393,48.393,0,0,1-10.685,4.193A48.251,48.251,0,0,1,56.816,68.49V65.5l1.012-.229A116.808,116.808,0,0,0,95.516,49.331a41.853,41.853,0,0,0,33.217,16.378H129v2.768a48.447,48.447,0,0,1-5.736,22.84,2.344,2.344,0,1,0,4.13,2.217,52.849,52.849,0,0,0,4.177-10.252h1.1a10.14,10.14,0,0,0,10.14-10.159ZM53.086,78.594h0a5.453,5.453,0,0,1-5.453-5.463l.011-5.936a5.464,5.464,0,0,1,4.485-5.355V68.49a53.343,53.343,0,0,0,.963,10.1h-.005ZM92.91,4.687a19.188,19.188,0,0,1,17.856,12.092,40.728,40.728,0,0,0-35.713,0A19.188,19.188,0,0,1,92.91,4.687ZM129,60v1.022h-.27A37.169,37.169,0,0,1,99.4,46.694q2.434-1.726,4.775-3.573a2.344,2.344,0,0,0-2.907-3.677,112.008,112.008,0,0,1-44.45,21.248V53.436a36.093,36.093,0,1,1,72.186,0V60Zm7.53,16.994a5.415,5.415,0,0,1-3.825,1.6,52.99,52.99,0,0,0,.982-10.117V61.85a5.464,5.464,0,0,1,4.426,5.345l.011,5.936A5.415,5.415,0,0,1,136.533,76.993Z" transform="translate(-42.946)"/></g></g><g transform="translate(106.664 33.567)"><path class="b" d="M318.94,144.006a2.344,2.344,0,0,0-3.309-.186l-.032.029a2.344,2.344,0,0,0,3.123,3.5l.032-.029A2.344,2.344,0,0,0,318.94,144.006Z" transform="translate(-314.816 -143.223)"/></g><g transform="translate(94.483 81.126)"><path class="b" d="M303.3,374.985l-12.948-12.948-4.979-13.018a4.473,4.473,0,0,0-4.981-2.8,21.833,21.833,0,0,0-17.469,17.463l-.01.055a4.5,4.5,0,0,0,2.688,4.935l12.776,5.293,10.366,10.366a2.344,2.344,0,0,0,3.314-3.315l-9.038-9.038,5.322-5.322L299.988,378.3a2.344,2.344,0,1,0,3.315-3.315Zm-24.145-5.772-11.6-4.805a17.129,17.129,0,0,1,13.5-13.546l4.551,11.9Z" transform="translate(-262.844 -346.146)"/></g><g transform="translate(136.972 115.31)"><path class="b" d="M448.133,492.687a2.342,2.342,0,1,0,.687,1.657A2.36,2.36,0,0,0,448.133,492.687Z" transform="translate(-444.132 -492)"/></g></g></svg>