<svg xmlns="http://www.w3.org/2000/svg" width="13.309" height="13.309" viewBox="0 0 13.309 13.309"><defs><style>.a{fill:#0d6ab1;}</style></defs><g transform="translate(-16.2 -16.2)"><g transform="translate(16.2 16.2)"><path class="a" d="M22.854,16.2a6.654,6.654,0,1,0,6.654,6.654A6.659,6.659,0,0,0,22.854,16.2Zm.374,9.509a.465.465,0,0,1-.374.158.55.55,0,0,1-.394-.158.578.578,0,0,1-.138-.374.538.538,0,0,1,.158-.374.548.548,0,0,1,.748,0,.538.538,0,0,1,.158.374A.5.5,0,0,1,23.229,25.709Zm.158-2.54a.532.532,0,1,1-1.063,0v-2.8a.532.532,0,1,1,1.063,0Z" transform="translate(-16.2 -16.2)"/></g></g></svg>