<svg xmlns="http://www.w3.org/2000/svg" width="41.13" height="26.5" viewBox="0 0 41.13 26.5"><defs><style>.a{fill:#1e4fad;}.b{fill:#fff;fill-rule:evenodd;}</style></defs><rect class="a" width="41.13" height="26.366" rx="2" transform="translate(0 0)"/><path class="b" d="M53.326,70.02c-.022.819-.033,2.718-.033,2.718h3.774c-.171,1.309-.336,2.569-.5,3.834H53.32L53.3,85.627H50.245c-.3,0-.611.022-.9,0V76.561H46.091V72.738h3.274v-.286c0-.77-.017-1.535,0-2.3a10.958,10.958,0,0,1,.121-1.469A4.288,4.288,0,0,1,51.2,65.823a4.966,4.966,0,0,1,2.861-.881c.677-.016,1.348.017,2.025.044.369.022.737.072,1.084.1v3.422H56.9c-.66,0-1.315-.016-1.975.006C54.024,68.551,53.358,68.892,53.326,70.02Z" transform="translate(-31.326 -59.137)"/></svg>