<svg xmlns="http://www.w3.org/2000/svg" width="24.991" height="16.274" viewBox="0 0 24.991 16.274"><defs><style>.a{fill:#fc4d3f;}</style></defs><g transform="translate(0 0)"><path class="a" d="M44.581,232.193c0,.049-.008.09-.008.129,0,.993,0,3.141,0,3.141h4.236a3.717,3.717,0,0,1-1.555,2.449,4.46,4.46,0,0,1-2.3.76,4.526,4.526,0,0,1-1.716-.205,4.876,4.876,0,0,1-3.262-4.231,4.791,4.791,0,0,1,.1-1.475,4.685,4.685,0,0,1,5.2-3.746,4.225,4.225,0,0,1,2.325,1.153c.765-.788,1.522-1.567,2.3-2.37a9.793,9.793,0,0,0-1.4-1.058,7.367,7.367,0,0,0-3.754-1.05c-.252,0-.5.011-.756.022a6.065,6.065,0,0,0-1.3.209,7.787,7.787,0,0,0-4.244,2.784,8.13,8.13,0,0,0-1.75,4.65,7.905,7.905,0,0,0,.167,2.191,8.076,8.076,0,0,0,3.095,4.864,7.59,7.59,0,0,0,4.224,1.538,8.153,8.153,0,0,0,2.593-.263,6.881,6.881,0,0,0,3.892-2.632,8.929,8.929,0,0,0,1.356-6.862Z" transform="translate(-36.679 -225.69)"/><path class="a" d="M69.2,233.807H66.523v-2.839h-2.16v2.839H61.6v2.221h2.759v2.839h2.16v-2.839h2.76v-2.221Z" transform="translate(-44.292 -227.197)"/></g></svg>