<svg xmlns="http://www.w3.org/2000/svg" width="36.736" height="36.737" viewBox="0 0 36.736 36.737"><defs><style>.a{fill:#8433b7;}</style></defs><path class="a" d="M214.032,210.516A3.516,3.516,0,1,1,210.516,207,3.516,3.516,0,0,1,214.032,210.516Zm0,0" transform="translate(-192.147 -192.147)"/><path class="a" d="M152.354,137.915a3.493,3.493,0,0,0-2-2,5.837,5.837,0,0,0-1.958-.363c-1.112-.051-1.446-.062-4.262-.062s-3.15.011-4.262.061a5.84,5.84,0,0,0-1.958.363,3.494,3.494,0,0,0-2,2,5.838,5.838,0,0,0-.363,1.959c-.051,1.112-.062,1.446-.062,4.262s.011,3.15.062,4.262a5.836,5.836,0,0,0,.363,1.958,3.493,3.493,0,0,0,2,2,5.829,5.829,0,0,0,1.959.363c1.112.051,1.445.061,4.262.061s3.15-.011,4.262-.061a5.829,5.829,0,0,0,1.959-.363,3.493,3.493,0,0,0,2-2,5.84,5.84,0,0,0,.363-1.958c.051-1.112.061-1.446.061-4.262s-.011-3.15-.061-4.262A5.828,5.828,0,0,0,152.354,137.915Zm-8.222,11.637a5.416,5.416,0,1,1,5.416-5.416A5.416,5.416,0,0,1,144.132,149.552Zm5.63-9.781a1.266,1.266,0,1,1,1.266-1.266A1.266,1.266,0,0,1,149.762,139.771Zm0,0" transform="translate(-125.763 -125.767)"/><path class="a" d="M18.368,0A18.369,18.369,0,1,0,36.737,18.369,18.371,18.371,0,0,0,18.368,0ZM28.852,22.717a7.739,7.739,0,0,1-.49,2.56,5.393,5.393,0,0,1-3.085,3.085,7.744,7.744,0,0,1-2.56.49c-1.125.051-1.484.064-4.349.064s-3.224-.012-4.349-.064a7.744,7.744,0,0,1-2.56-.49,5.393,5.393,0,0,1-3.085-3.085,7.737,7.737,0,0,1-.49-2.56c-.052-1.125-.064-1.484-.064-4.349s.012-3.224.064-4.349a7.739,7.739,0,0,1,.49-2.56A5.4,5.4,0,0,1,11.46,8.375a7.746,7.746,0,0,1,2.56-.49c1.125-.051,1.484-.064,4.349-.064s3.224.012,4.349.064a7.747,7.747,0,0,1,2.56.49,5.395,5.395,0,0,1,3.085,3.085,7.738,7.738,0,0,1,.49,2.56c.051,1.125.063,1.484.063,4.349S28.9,21.592,28.852,22.717Zm0,0" transform="translate(0)"/></svg>