<svg width="37.201" height="37.2" xmlns="http://www.w3.org/2000/svg">
 <defs>
  <radialGradient r="15.345" id="SVGID_1_" gradientUnits="userSpaceOnUse" gradientTransform="matrix(1 0 0 -1 0 -298)" cy="-322" cx="24">
   <stop stop-color="#FAF707" offset="0.09184"/>
   <stop stop-color="#FFFC00" offset="0.72959"/>
  </radialGradient>
 </defs>
 <g>
  <title>background</title>
  <rect fill="none" id="canvas_background" height="39.2" width="39.201" y="-1" x="-1"/>
 </g>
 <g>
  <title>Layer 1</title>
  <g stroke="null" id="Icons">
   <g stroke="null" id="Icons_31_">
    <g stroke="null" id="svg_1">
     <path stroke="null" id="svg_2" fill="url(#SVGID_1_)" d="m18.518049,0.606246c-9.89525,0 -17.911802,8.016552 -17.911802,17.911802c0,9.883581 8.016552,17.900133 17.911802,17.900133c9.883581,0 17.900133,-8.016552 17.900133,-17.900133c0,-9.89525 -8.016552,-17.911802 -17.900133,-17.911802zm6.826322,25.496604c-1.73867,-0.583446 -3.127272,-0.151696 -4.434192,0.840163c-0.746811,0.583446 -1.563636,0.886838 -2.39213,0.886838c-0.828494,0 -1.645319,-0.303392 -2.403799,-0.886838c-1.30692,-0.991859 -2.683853,-1.423609 -4.434192,-0.840163c0.023338,-2.030393 -1.983718,-1.248575 -2.975576,-2.217096c1.96038,-0.606784 3.313975,-1.762008 4.189145,-3.454002c0.641791,-1.248575 0.408412,-1.808684 -0.910176,-2.333785c-0.443419,-0.186703 -0.863501,-0.408412 -1.295251,-0.618453c0.035007,-0.140027 0.070014,-0.280054 0.116689,-0.408412c0.443419,0.058345 0.898507,0.116689 1.330258,0.186703c0.991859,0.186703 1.318589,-0.093351 1.248575,-1.061872c-0.035007,-0.54844 -0.070014,-1.096879 -0.093351,-1.63365c-0.093351,-2.0654 0.65346,-3.722388 2.508819,-4.667571c0.898507,-0.455088 1.808684,-0.688467 2.71886,-0.700136c0.910176,0.011669 1.808684,0.245047 2.707191,0.700136c1.867028,0.945183 2.61384,2.602171 2.520488,4.667571c-0.023338,0.536771 -0.058345,1.08521 -0.10502,1.63365c-0.058345,0.968521 0.268385,1.248575 1.248575,1.061872c0.443419,-0.070014 0.898507,-0.128358 1.330258,-0.186703c0.046676,0.128358 0.081682,0.268385 0.128358,0.408412c-0.443419,0.210041 -0.863501,0.43175 -1.30692,0.618453c-1.30692,0.525102 -1.551967,1.08521 -0.910176,2.333785c0.886838,1.691994 2.228765,2.847218 4.189145,3.454002c-0.98019,0.968521 -2.998914,0.186703 -2.975576,2.217096z"/>
    </g>
   </g>
  </g>
 </g>
</svg>