<svg xmlns="http://www.w3.org/2000/svg" width="36.871" height="36.871" viewBox="0 0 36.871 36.871"><defs><style>.a{fill:#55acee;}.b{fill:#f1f2f2;}</style></defs><ellipse class="a" cx="18.435" cy="18.435" rx="18.435" ry="18.435" transform="translate(0 0)"/><g transform="translate(8.249 11.182)"><path class="b" d="M46.581,36.094a8.792,8.792,0,0,1-2.531.693,4.418,4.418,0,0,0,1.938-2.437,8.821,8.821,0,0,1-2.8,1.069,4.41,4.41,0,0,0-7.509,4.02,12.509,12.509,0,0,1-9.083-4.6,4.411,4.411,0,0,0,1.363,5.883,4.375,4.375,0,0,1-2-.552c0,.019,0,.037,0,.056a4.409,4.409,0,0,0,3.535,4.32,4.424,4.424,0,0,1-1.99.076,4.411,4.411,0,0,0,4.116,3.06A8.9,8.9,0,0,1,25.1,49.5,12.531,12.531,0,0,0,44.395,38.945c0-.191,0-.381-.013-.57a8.936,8.936,0,0,0,2.2-2.281Z" transform="translate(-25.103 -34.028)"/></g></svg>