<svg xmlns="http://www.w3.org/2000/svg" width="36.871" height="36.871" viewBox="0 0 36.871 36.871"><defs><style>.a{fill:#f61c0d;}.b{fill:#fff;}</style></defs><ellipse class="a" cx="18.435" cy="18.435" rx="18.435" ry="18.435" transform="translate(0 0)"/><g transform="translate(-36.194 4.871)"><g transform="translate(44.245)"><path class="b" d="M65.913,219.456a2.794,2.794,0,0,0-2.381-2.173q-2.738-.3-8.259-.3t-8.244.3a2.7,2.7,0,0,0-1.533.7,2.826,2.826,0,0,0-.863,1.473,25.79,25.79,0,0,0-.387,5.209,25.258,25.258,0,0,0,.387,5.209,2.721,2.721,0,0,0,.856,1.473,2.638,2.638,0,0,0,1.525.685,79.578,79.578,0,0,0,8.259.313,79.563,79.563,0,0,0,8.259-.313,2.6,2.6,0,0,0,1.518-.685,2.824,2.824,0,0,0,.863-1.473,25.787,25.787,0,0,0,.387-5.209A25.273,25.273,0,0,0,65.913,219.456Zm-15.372,1.5H48.948v8.467H47.46v-8.467H45.9v-1.4H50.54v1.4Zm4.018,8.467H53.234v-.8a2.178,2.178,0,0,1-1.518.908.8.8,0,0,1-.863-.551,3.683,3.683,0,0,1-.119-1.086v-5.818h1.324v5.417a4.11,4.11,0,0,0,.015.521q.045.312.313.312.4,0,.848-.625v-5.625h1.324v7.351Zm5.06-2.2a5.5,5.5,0,0,1-.133,1.488,1.031,1.031,0,0,1-1.057.818,1.847,1.847,0,0,1-1.384-.818v.714H55.719v-9.866h1.324v3.229a1.793,1.793,0,0,1,1.384-.8,1.034,1.034,0,0,1,1.057.833,5.316,5.316,0,0,1,.133,1.473Zm5.03-1.22H61.984V227.3q0,1.027.684,1.027a.569.569,0,0,0,.6-.536,7.419,7.419,0,0,0,.03-.908h1.354v.193a6.59,6.59,0,0,1-.03.863,1.842,1.842,0,0,1-1.92,1.592,1.911,1.911,0,0,1-1.607-.759,2.8,2.8,0,0,1-.431-1.726v-2.575a2.873,2.873,0,0,1,.416-1.726,2.035,2.035,0,0,1,3.17,0,2.951,2.951,0,0,1,.4,1.726V226Z" transform="translate(-44.245 -205.676)"/><path class="b" d="M290.457,336.043a.956.956,0,0,0-.67.327v4.479a.955.955,0,0,0,.67.327q.58,0,.581-1v-3.14Q291.037,336.043,290.457,336.043Z" transform="translate(-276.989 -318.528)"/><path class="b" d="M385.251,336.043q-.67,0-.67,1.012v.685h1.339v-.685Q385.92,336.043,385.251,336.043Z" transform="translate(-366.842 -318.528)"/><path class="b" d="M114.372,5.938V9.97h1.488V5.938L117.661,0h-1.518l-1.012,3.914L114.074,0H112.5q.417,1.25.967,2.783A25.225,25.225,0,0,1,114.372,5.938Z" transform="translate(-108.94)"/><path class="b" d="M213.827,54.727a1.831,1.831,0,0,0,1.577-.759,2.932,2.932,0,0,0,.417-1.756v-2.6a2.9,2.9,0,0,0-.417-1.741,2,2,0,0,0-3.14,0,2.9,2.9,0,0,0-.417,1.741v2.6a2.974,2.974,0,0,0,.417,1.756A1.84,1.84,0,0,0,213.827,54.727Zm-.64-5.387q0-1.027.64-1.027t.64,1.027v3.125q0,1.042-.64,1.042t-.64-1.042Z" transform="translate(-203.112 -44.653)"/><path class="b" d="M310.2,56.352a2.141,2.141,0,0,0,1.533-.923v.818h1.354V48.822h-1.354v5.67q-.447.64-.848.64-.268,0-.313-.327a3.887,3.887,0,0,1-.015-.521V48.822H309.2v5.863a3.825,3.825,0,0,0,.119,1.116A.827.827,0,0,0,310.2,56.352Z" transform="translate(-295.388 -46.277)"/></g></g></svg>