<svg height='100px' width='100px'  fill="#ffffff" xmlns:x="http://ns.adobe.com/Extensibility/1.0/" xmlns:i="http://ns.adobe.com/AdobeIllustrator/10.0/" xmlns:graph="http://ns.adobe.com/Graphs/1.0/" xmlns="http://www.w3.org/2000/svg" xmlns:xlink="http://www.w3.org/1999/xlink" version="1.1" x="0px" y="0px" viewBox="0 0 283.46 283.46" enable-background="new 0 0 283.46 283.46" xml:space="preserve"><g><g i:extraneous="self"><g><path fill="#ffffff" d="M141.735-0.002C63.584-0.002-0.002,63.584-0.002,141.735s63.586,141.727,141.737,141.727     s141.727-63.575,141.727-141.727S219.887-0.002,141.735-0.002z M141.735,262.573c-66.636,0-120.848-54.213-120.848-120.838     C20.888,75.1,75.1,20.888,141.735,20.888c66.625,0,120.838,54.212,120.838,120.848     C262.573,208.36,208.36,262.573,141.735,262.573z"></path><path fill="#ffffff" d="M195.417,89.686l-68.318,81.517l-39.341-43.114c-3.887-4.273-10.496-4.58-14.76-0.673     c-4.264,3.886-4.559,10.485-0.673,14.749l47.389,51.938c1.979,2.172,4.783,3.406,7.711,3.406c0.071,0,0.153,0,0.225,0     c3.009-0.062,5.845-1.428,7.782-3.733l75.999-90.666c3.702-4.427,3.121-11.006-1.295-14.719     C205.709,84.677,199.13,85.289,195.417,89.686z"></path></g></g></g></svg>