<svg xmlns="http://www.w3.org/2000/svg" width="13.737" height="15.501" viewBox="0 0 13.737 15.501"><defs><style>.a{fill:#1d1d1d;stroke:#1d1d1d;stroke-width:0.5px;}</style></defs><g transform="translate(-1.75 0.25)"><g transform="translate(0 0)"><path class="a" d="M56.863,32.391a.372.372,0,0,0,.1-.013l4.2-1.151a.394.394,0,0,0,.169-.1l6.777-6.777a1.48,1.48,0,0,0,0-2.089l-1.5-1.5a1.48,1.48,0,0,0-2.09,0l-6.777,6.777a.394.394,0,0,0-.1.169L56.5,31.91a.377.377,0,0,0,.366.48Zm1.7-4.589,4.888-4.888,2.513,2.512-4.888,4.888Zm6.5-6.5a.714.714,0,0,1,1.011,0l1.5,1.5a.714.714,0,0,1,0,1.011L66.5,24.885,63.99,22.372Zm-6.854,7.235,2.128,2.128-2.932.8Z" transform="translate(-54.211 -20.325)"/><path class="a" d="M60.755,468H48.282a.382.382,0,1,0,0,.763H60.755a.382.382,0,1,0,0-.763Z" transform="translate(-45.9 -453.762)"/></g></g></svg>