<svg xmlns="http://www.w3.org/2000/svg" width="20.938" height="20.936" viewBox="0 0 20.938 20.936"><defs><style>.a{fill:#da1884;}</style></defs><g transform="translate(0 0)"><path class="a" d="M26.668,16.2A10.468,10.468,0,1,0,37.136,26.668,10.475,10.475,0,0,0,26.668,16.2Zm.588,14.959a.732.732,0,0,1-.588.248.865.865,0,0,1-.619-.248.909.909,0,0,1-.217-.588.846.846,0,0,1,.248-.588.861.861,0,0,1,1.177,0,.846.846,0,0,1,.248.588A.793.793,0,0,1,27.257,31.159Zm.248-4a.836.836,0,1,1-1.672,0v-4.4a.836.836,0,1,1,1.672,0Z" transform="translate(-16.2 -16.2)"/></g></svg>