<svg xmlns="http://www.w3.org/2000/svg" width="22.207" height="22.852" viewBox="0 0 22.207 22.852"><defs><style>.a{fill:#1e4fad;}.b{fill:#fff;fill-rule:evenodd;}</style></defs><g transform="translate(0 0)"><rect class="a" width="22.207" height="22.844" rx="2"/><path class="b" d="M51.781,69.05c-.017.663-.026,2.2-.026,2.2h2.968c-.134,1.059-.264,2.079-.394,3.1H51.777l0,7.423h-2.4c-.234,0-.481.018-.71,0l-.011-7.432H46.091V71.249h2.575v-.232c0-.623-.013-1.242,0-1.865a9.116,9.116,0,0,1,.095-1.189,3.487,3.487,0,0,1,1.35-2.31,3.83,3.83,0,0,1,2.25-.712c.533-.013,1.06.014,1.593.036.29.018.58.058.852.084V67.83h-.212c-.519,0-1.034-.013-1.554,0C52.33,67.861,51.807,68.137,51.781,69.05Z" transform="translate(-37.357 -58.93)"/></g></svg>