<svg xmlns="http://www.w3.org/2000/svg" width="18.563" height="16.707" viewBox="0 0 18.563 16.707"><defs><style>.a{fill:none;}.b,.c{stroke:none;}.c{fill:#fa4a9f;}</style></defs><g class="a" transform="translate(-2 -3)"><path class="b" d="M11.281,19.707,9.936,18.5C5.156,14.253,2,11.449,2,8.007A5.008,5.008,0,0,1,7.1,3a5.6,5.6,0,0,1,4.177,1.9A5.6,5.6,0,0,1,15.458,3a5.008,5.008,0,0,1,5.1,5.007c0,3.441-3.156,6.246-7.936,10.507Z"/><path class="c" d="M 11.28651332855225 17.0298023223877 L 11.29722690582275 17.02030754089355 L 11.33283710479736 16.98857307434082 C 15.68663692474365 13.10762214660645 18.56291770935059 10.54372215270996 18.56291770935059 8.007442474365234 C 18.56291770935059 7.192732334136963 18.25006675720215 6.437162399291992 17.68199729919434 5.879922389984131 C 17.10353660583496 5.312492370605469 16.31374740600586 5.000002384185791 15.45811653137207 5.000002384185791 C 14.46347713470459 5.000002384185791 13.44178676605225 5.46516227722168 12.79174709320068 6.213942527770996 L 11.28145694732666 7.953672409057617 L 9.771166801452637 6.213942527770996 C 9.121127128601074 5.46516227722168 8.09943675994873 5.000002384185791 7.104796886444092 5.000002384185791 C 6.249166965484619 5.000002384185791 5.459386825561523 5.312502384185791 4.880927085876465 5.879922389984131 C 4.312847137451172 6.437162399291992 3.999996900558472 7.192732334136963 3.999996900558472 8.007442474365234 C 3.999996900558472 10.54842281341553 6.885547161102295 13.11510276794434 11.25336742401123 17.00025177001953 L 11.26776695251465 17.01306343078613 L 11.28651332855225 17.0298023223877 M 11.28145694732666 19.70662307739258 L 9.935647010803223 18.50486183166504 C 5.155696868896484 14.25312232971191 1.999996900558472 11.44891262054443 1.999996900558472 8.007442474365234 C 1.999996900558472 5.203272342681885 4.246117115020752 3.000002384185791 7.104796886444092 3.000002384185791 C 8.71977710723877 3.000002384185791 10.26977729797363 3.737462520599365 11.28145694732666 4.902832508087158 C 12.29313659667969 3.737462520599365 13.84313678741455 3.000002384185791 15.45811653137207 3.000002384185791 C 18.31680679321289 3.000002384185791 20.56291770935059 5.203272342681885 20.56291770935059 8.007442474365234 C 20.56291770935059 11.44891262054443 17.40721702575684 14.25312232971191 12.6272668838501 18.51396179199219 L 11.28145694732666 19.70662307739258 Z"/></g></svg>