<svg xmlns="http://www.w3.org/2000/svg" width="41.13" height="26.366" viewBox="0 0 41.13 26.366"><defs><style>.a{fill:#fc4d3f;}.b{fill:#fff;}</style></defs><rect class="a" width="41.13" height="26.366" rx="2" transform="translate(0 0)"/><g transform="translate(11.074 7.382)"><path class="b" d="M42.678,230.49c0,.036-.006.066-.006.1,0,.733,0,2.318,0,2.318h3.216a2.73,2.73,0,0,1-1.181,1.808,3.452,3.452,0,0,1-1.746.561,3.528,3.528,0,0,1-1.3-.151A3.618,3.618,0,0,1,39.185,232a3.44,3.44,0,0,1,.073-1.089,3.548,3.548,0,0,1,3.951-2.765,3.241,3.241,0,0,1,1.765.851l1.747-1.749a7.413,7.413,0,0,0-1.064-.781,5.714,5.714,0,0,0-2.85-.775c-.191,0-.383.008-.574.016a4.724,4.724,0,0,0-.99.154,6.02,6.02,0,0,0-4.551,5.487,5.677,5.677,0,0,0,.127,1.617,5.945,5.945,0,0,0,2.35,3.59,5.865,5.865,0,0,0,3.207,1.135,6.359,6.359,0,0,0,1.968-.194,5.232,5.232,0,0,0,2.955-1.943,6.441,6.441,0,0,0,1.03-5.064Z" transform="translate(-36.679 -225.69)"/><path class="b" d="M67.373,233.063H65.338v-2.1H63.7v2.1H61.6V234.7H63.7v2.1h1.64v-2.1h2.1v-1.639Z" transform="translate(-48.461 -228.185)"/></g></svg>