<svg xmlns="http://www.w3.org/2000/svg" width="31.43" height="46.032" viewBox="0 0 31.43 46.032"><defs><style>.a{fill:#fa4a9f;}</style></defs><g transform="translate(-22 -8.992)"><g transform="translate(22 8.992)"><path class="a" d="M37.715,961.354A15.45,15.45,0,0,0,22,977.069a16.538,16.538,0,0,0,2.438,8.454l11.8,20.995a1.684,1.684,0,0,0,2.947,0l11.8-20.995a16.536,16.536,0,0,0,2.438-8.454A15.45,15.45,0,0,0,37.715,961.354Zm0,3.368c6.929,0,12.348,4.821,12.348,12.348a12.73,12.73,0,0,1-2.017,6.805l-10.331,18.382L27.385,983.875a12.733,12.733,0,0,1-2.017-6.806C25.368,969.542,30.786,964.722,37.715,964.722Zm0,3.929a8.419,8.419,0,1,0,8.419,8.419A8.444,8.444,0,0,0,37.715,968.65Zm0,3.367a5.051,5.051,0,1,1-5.051,5.051A5.026,5.026,0,0,1,37.715,972.018Z" transform="translate(-22 -961.354)"/></g></g></svg>