<?xml version="1.0" encoding="utf-8"?>
<!-- Generator: Adobe Illustrator 23.0.3, SVG Export Plug-In . SVG Version: 6.00 Build 0)  -->
<svg version="1.1" id="Layer_1" xmlns="http://www.w3.org/2000/svg" xmlns:xlink="http://www.w3.org/1999/xlink" x="0px" y="0px"
	 viewBox="0 0 16 16" style="enable-background:new 0 0 16 16;" xml:space="preserve">
<style type="text/css">
	.st0{fill:#FFFFFF;}
</style>
<g transform="translate(0 0)">
	<path class="st0" d="M7,14c-3.9,0-7-3.1-7-7s3.1-7,7-7s7,3.1,7,7C14,10.9,10.9,14,7,14z M7,2C4.2,2,2,4.2,2,7s2.2,5,5,5s5-2.2,5-5
		C12,4.2,9.8,2,7,2z"/>
	<path class="st0" d="M15.7,14.3l-2.4-2.4c-0.4,0.5-0.9,1-1.4,1.4l2.4,2.4c0.4,0.4,1,0.4,1.4,0C16.1,15.3,16.1,14.7,15.7,14.3z"/>
</g>
</svg>
