<svg xmlns="http://www.w3.org/2000/svg" width="22.307" height="22.156" viewBox="0 0 22.307 22.156"><defs><style>.a{fill:#7f8e9a;stroke:#7f8e9a;stroke-width:0.5px;}</style></defs><g transform="translate(-16619.197 -2054.459)"><path class="a" d="M44.386,22.208a2.723,2.723,0,1,0-2.723,2.738A2.723,2.723,0,0,0,44.386,22.208Zm-4.461,0a1.738,1.738,0,1,1,1.738,1.753A1.738,1.738,0,0,1,39.925,22.208Z" transform="translate(16588.682 2038.533)"/><path class="a" d="M7.234,18.891,5.757,27.077a.492.492,0,0,0,.492.579h20.8a.492.492,0,0,0,.492-.579l-1.477-8.186a.492.492,0,0,0-.492-.406H20.453l1.283-1.723a6.8,6.8,0,0,0,1.386-4.5A6.654,6.654,0,0,0,16.582,6a6.655,6.655,0,0,0-6.539,6.276,6.8,6.8,0,0,0,1.386,4.5l1.283,1.723H7.719A.492.492,0,0,0,7.234,18.891Zm3.792-6.551a5.681,5.681,0,0,1,5.557-5.355,5.666,5.666,0,0,1,5.557,5.35,5.81,5.81,0,0,1-1.194,3.841L16.582,22.02l-4.37-5.837a5.81,5.81,0,0,1-1.187-3.841Zm2.423,7.14,2.74,3.659a.492.492,0,0,0,.79,0l2.738-3.666h5.441l1.3,7.209H6.83l1.3-7.2Z" transform="translate(16613.699 2048.709)"/></g></svg>