<svg xmlns="http://www.w3.org/2000/svg" width="116" height="116.014" viewBox="0 0 116 116.014"><defs><style>.a{opacity:0.45;}.b{fill:#510027;}</style></defs><g class="a" transform="translate(0 0.019)"><path class="b" d="M98.462,60.607a1.812,1.812,0,0,0-.453,1.414l5.691,49.842a1.813,1.813,0,0,0,.19.625V115a6.634,6.634,0,0,0,6.625,6.624h2.157A6.634,6.634,0,0,0,119.3,115v-2.51a1.812,1.812,0,0,0,.19-.625l5.691-49.842a1.812,1.812,0,0,0-1.8-2.021H99.812A1.812,1.812,0,0,0,98.462,60.607Zm17.218,54.374a3.009,3.009,0,0,1-3,3h-2.148a3.009,3.009,0,0,1-3-3v-1.513h8.156ZM119.7,78.034l-5.619,5.619A5.437,5.437,0,0,1,116.8,86.09l2.275-2.275-3.009,26.027h-8.954l-1.45-12.687a1.812,1.812,0,0,0,.372-.281l3.362-3.362a5.437,5.437,0,0,1-2.438-2.719l-1.812,1.812-2.429-21.278h17.744Zm1.64-14.409-.462,4.078H102.3l-.462-4.078Z" transform="translate(-9.19 -5.628)"/><circle class="b" cx="1.812" cy="1.812" r="1.812" transform="translate(100.981 81.251)"/><path class="b" d="M74.205,9.522a1.812,1.812,0,0,0,1.278-.535l2.284-2.275a22.729,22.729,0,0,0,2.628,2.293l-2.257,2.257A1.813,1.813,0,0,0,80.7,13.827l2.891-2.891a17.7,17.7,0,0,0,3.045,1.142l-1.695,3.788a1.813,1.813,0,0,0,3.308,1.486l2-4.459a1.813,1.813,0,0,0,.073-.217h.816a17.889,17.889,0,0,0,2.719-.227,1.812,1.812,0,0,0,.154.671L95.9,17.37a1.814,1.814,0,0,0,3.326-1.45l-1.885-4.25v-.063a24.83,24.83,0,0,0,3.5-1.513,1.812,1.812,0,0,0,.208.254l3.471,3.471a1.813,1.813,0,1,0,2.565-2.565l-3.108-3.09c.906-.652,1.9-1.377,2.864-2.166a1.813,1.813,0,0,0,.335.444L110.327,9.4a1.812,1.812,0,0,0,2.492-2.619l-3.154-2.963a1.812,1.812,0,0,0-.19-.145l.6-.562A1.812,1.812,0,0,0,107.536.532C101.093,6.876,94.985,9.7,89.412,8.96,82.008,7.982,77.785.995,77.73.913A1.812,1.812,0,0,0,74.6,2.726a8.313,8.313,0,0,0,.807,1.205l-2.465,2.5a1.812,1.812,0,0,0,1.278,3.09Z" transform="translate(-6.791 -0.009)"/><path class="b" d="M12.205,9.514a1.812,1.812,0,0,0,1.278-.535L15.767,6.7A22.728,22.728,0,0,0,18.395,9l-2.257,2.257A1.813,1.813,0,1,0,18.7,13.818l2.891-2.891a17.7,17.7,0,0,0,3.045,1.142l-1.695,3.788a1.813,1.813,0,0,0,3.308,1.486l2-4.459a1.812,1.812,0,0,0,.072-.217h.816a17.888,17.888,0,0,0,2.719-.227,1.812,1.812,0,0,0,.154.671l1.885,4.25a1.814,1.814,0,1,0,3.326-1.45l-1.885-4.25V11.6a24.83,24.83,0,0,0,3.5-1.513,1.813,1.813,0,0,0,.208.254l3.471,3.471a1.813,1.813,0,1,0,2.565-2.565l-3.108-3.09c.906-.652,1.9-1.377,2.864-2.166a1.812,1.812,0,0,0,.335.444L48.327,9.4a1.812,1.812,0,0,0,2.492-2.619L47.657,3.813a1.812,1.812,0,0,0-.19-.145l.634-.562A1.829,1.829,0,0,0,45.518.515c-6.443,6.344-12.56,9.171-18.125,8.428C20.008,7.973,15.785.986,15.73.9A1.812,1.812,0,0,0,12.6,2.717a8.313,8.313,0,0,0,.807,1.205l-2.465,2.5a1.812,1.812,0,0,0,1.278,3.09Z" transform="translate(-0.977)"/><circle class="b" cx="1.812" cy="1.812" r="1.812" transform="translate(66.146 77.816)"/><path class="b" d="M34.949,64.5a1.813,1.813,0,0,0,2.565-2.565l-4.4-4.4A1.813,1.813,0,0,0,30.545,60.1Z" transform="translate(-2.814 -5.347)"/><path class="b" d="M41.622,59.186a1.813,1.813,0,0,0,2.565-2.565L38.26,50.7A1.813,1.813,0,0,0,35.7,53.26Z" transform="translate(-3.297 -4.706)"/><path class="b" d="M1.812,119.9h87a1.812,1.812,0,0,0,1.812-1.812v-29a1.812,1.812,0,0,0-1.812-1.812H76.649V71.7a1.812,1.812,0,0,0-1.722-1.812V64.621a1.812,1.812,0,0,0-1.722-1.812v-6.76a1.812,1.812,0,0,0-.979-1.613l-6.878-3.561A1.812,1.812,0,0,0,62.7,52.487V62.809a1.812,1.812,0,0,0-1.722,1.812v5.31a1.812,1.812,0,0,0-1.722,1.812V87.277H36.929V84.794a4.652,4.652,0,0,0-4.151-4.359V76.32a1.812,1.812,0,0,0-1.812-1.812H22.121A7.467,7.467,0,0,1,19.3,60.09a14.79,14.79,0,1,0-.462-3.625,11.083,11.083,0,0,0,3.29,21.677h7.023v2.3A4.652,4.652,0,0,0,25,84.8v2.474H1.812A1.812,1.812,0,0,0,0,89.089v29A1.812,1.812,0,0,0,1.812,119.9ZM33.675,45.273A11.219,11.219,0,1,1,22.456,56.465,11.219,11.219,0,0,1,33.675,45.273ZM66.3,55.468l3.253,1.686v5.655H66.327ZM64.6,66.434h6.7v3.489H64.6Zm-1.722,7.114h3.271V77.87a1.812,1.812,0,0,0,3.625,0V73.511h3.253V87.277H62.883ZM28.619,84.794c0-.3.634-.834,1.677-.834h1.332c1.042,0,1.677.544,1.677.834v2.483H28.619ZM3.625,90.9H87v25.374H3.625Z" transform="translate(0 -3.906)"/><path class="b" d="M82.381,108.23H9.4a1.812,1.812,0,0,0,0,3.625H82.381a1.812,1.812,0,1,0,0-3.625Z" transform="translate(-0.712 -10.151)"/></g></svg>